<svg width="100" height="100" viewBox="0 0 100 100" fill="none" xmlns="http://www.w3.org/2000/svg">
<rect width="100" height="100" rx="50" fill="#F3EFE8"/>
<path fill-rule="evenodd" clip-rule="evenodd" d="M56.9257 31.7266C56.4986 31.2995 55.8061 31.2995 55.3789 31.7266C54.9518 32.1537 54.9518 32.8463 55.3789 33.2734L71.0118 48.9062L27.0313 48.9063C26.4272 48.9063 25.9375 49.3959 25.9375 50C25.9375 50.6041 26.4272 51.0938 27.0313 51.0938L71.0118 51.0937L55.379 66.7265C54.9518 67.1537 54.9518 67.8462 55.379 68.2733C55.8061 68.7005 56.4986 68.7005 56.9258 68.2733L73.2656 51.9335C74.3335 50.8656 74.3335 49.1343 73.2656 48.0665L56.9257 31.7266Z" fill="#797874"/>
</svg>
