<svg width="100" height="100" viewBox="0 0 100 100" fill="none" xmlns="http://www.w3.org/2000/svg">
<rect y="100" width="100" height="100" rx="50" transform="rotate(-90 0 100)" fill="#F3EFE8"/>
<path fill-rule="evenodd" clip-rule="evenodd" d="M31.7266 43.0743C31.2995 43.5014 31.2995 44.1939 31.7266 44.6211C32.1537 45.0482 32.8463 45.0482 33.2734 44.6211L48.9062 28.9882L48.9063 72.9687C48.9063 73.5728 49.3959 74.0625 50 74.0625C50.6041 74.0625 51.0938 73.5728 51.0938 72.9687L51.0937 28.9882L66.7265 44.621C67.1537 45.0482 67.8462 45.0482 68.2733 44.621C68.7005 44.1939 68.7005 43.5014 68.2733 43.0742L51.9335 26.7344C50.8656 25.6665 49.1343 25.6665 48.0665 26.7344L31.7266 43.0743Z" fill="#797874"/>
<path d="M50 99.5C22.6619 99.5 0.5 77.3381 0.5 50C0.5 22.6619 22.6619 0.5 50 0.5C77.3381 0.5 99.5 22.6619 99.5 50C99.5 77.3381 77.3381 99.5 50 99.5Z" stroke="black" stroke-opacity="0.5"/>
</svg>
