<svg width="100" height="100" viewBox="0 0 100 100" fill="none" xmlns="http://www.w3.org/2000/svg">
<rect x="100" y="100" width="100" height="100" rx="50" transform="rotate(-180 100 100)" fill="#F3EFE8"/>
<path fill-rule="evenodd" clip-rule="evenodd" d="M43.0743 68.2734C43.5014 68.7005 44.1939 68.7005 44.6211 68.2734C45.0482 67.8463 45.0482 67.1537 44.6211 66.7266L28.9882 51.0937L72.9688 51.0937C73.5728 51.0937 74.0625 50.6041 74.0625 50C74.0625 49.3959 73.5728 48.9062 72.9688 48.9062L28.9882 48.9062L44.621 33.2735C45.0482 32.8463 45.0482 32.1538 44.621 31.7267C44.1939 31.2995 43.5014 31.2995 43.0742 31.7267L26.7344 48.0665C25.6665 49.1344 25.6665 50.8657 26.7344 51.9335L43.0743 68.2734Z" fill="#797874"/>
</svg>
