<svg width="14" height="14" viewBox="0 0 14 14" fill="none" xmlns="http://www.w3.org/2000/svg">
<path d="M7.35355 0.646447C7.15829 0.451184 6.84171 0.451184 6.64645 0.646447C6.45118 0.841709 6.45118 1.15829 6.64645 1.35355L7.35355 0.646447ZM13 7L13.3536 7.35355C13.5488 7.15829 13.5488 6.84171 13.3536 6.64645L13 7ZM6.64645 12.6464C6.45118 12.8417 6.45118 13.1583 6.64645 13.3536C6.84171 13.5488 7.15829 13.5488 7.35355 13.3536L6.64645 12.6464ZM6.64645 1.35355L12.6464 7.35355L13.3536 6.64645L7.35355 0.646447L6.64645 1.35355ZM12.6464 6.64645L6.64645 12.6464L7.35355 13.3536L13.3536 7.35355L12.6464 6.64645Z" fill="black"/>
<path d="M6.64645 13.3536C6.84171 13.5488 7.15829 13.5488 7.35355 13.3536C7.54882 13.1583 7.54882 12.8417 7.35355 12.6464L6.64645 13.3536ZM1 7L0.646447 6.64645C0.451185 6.84171 0.451185 7.15829 0.646447 7.35355L1 7ZM7.35355 1.35355C7.54882 1.15829 7.54882 0.841709 7.35355 0.646446C7.15829 0.451184 6.84171 0.451184 6.64645 0.646446L7.35355 1.35355ZM7.35355 12.6464L1.35355 6.64645L0.646447 7.35355L6.64645 13.3536L7.35355 12.6464ZM1.35355 7.35355L7.35355 1.35355L6.64645 0.646446L0.646447 6.64645L1.35355 7.35355Z" fill="black"/>
<rect x="6.90234" y="4" width="4.10334" height="4.10334" transform="rotate(45 6.90234 4)" fill="#714022"/>
</svg>
